<svg xmlns="http://www.w3.org/2000/svg" viewBox="0 0 96 96" width="96" height="96"><defs><clipPath id="c"><circle cx="48" cy="48" r="48"/></clipPath></defs><g clip-path="url(#c)"><rect width="96" height="96" fill="#FFEDD5"/><path d="M28 44 C26 22 38 15 48 15 C61 15 70 23 68 44 L70 66 L26 66 Z" fill="#3F2A1D"/><path d="M12 100 C12 74 28 64 48 64 C68 64 84 74 84 100 Z" fill="#EA580C"/><rect x="41" y="52" width="14" height="14" rx="4" fill="#E0A97F"/><ellipse cx="48" cy="40" rx="17" ry="19" fill="#F2C6A0"/><path d="M31 36 C32 22 41 18 49 18 C59 18 66 25 65 36 C58 28 46 26 31 36 Z" fill="#3F2A1D"/><circle cx="42" cy="42" r="2" fill="#1F2937"/><circle cx="54" cy="42" r="2" fill="#1F2937"/><path d="M43 49 Q48 53 53 49" fill="none" stroke="#9A3412" stroke-width="2" stroke-linecap="round"/><path d="M30 28 C31 18 40 15 48 15 C57 15 65 18 66 28 Z" fill="#9A3412"/><rect x="28" y="26" width="40" height="5" rx="2.5" fill="#7C2D12"/></g></svg>