<svg xmlns="http://www.w3.org/2000/svg" width="900" height="760" viewBox="0 0 900 760" fill="none"><defs><linearGradient id="g" x1="0" y1="0" x2="900" y2="760" gradientUnits="userSpaceOnUse"><stop stop-color="#aa8ce8"/><stop offset=".55" stop-color="#9681e5"/><stop offset="1" stop-color="#54bfdb"/></linearGradient><radialGradient id="glow"><stop stop-color="#aa8ce8" stop-opacity=".14"/><stop offset="1" stop-color="#aa8ce8" stop-opacity="0"/></radialGradient></defs><ellipse cx="680" cy="160" rx="330" ry="280" fill="url(#glow)"/><g stroke="url(#g)" stroke-linecap="round" stroke-linejoin="round"><g stroke-width="3" opacity=".5"><g transform="translate(580 80) rotate(-20)"><rect width="115" height="68" rx="27"/><rect x="150" width="115" height="68" rx="27"/><path d="M85 34h95"/><rect x="75" y="115" width="115" height="68" rx="27"/><path d="m216 67-65 48"/></g></g><g stroke-width="2" opacity=".24"><path d="M-20 400c150-130 140 100 280 0s110 210 310 100 210-35 330 40"/><g transform="translate(38 370) rotate(20)"><rect width="85" height="55" rx="22"/><rect x="112" width="85" height="55" rx="22"/><path d="M65 27h70"/></g><circle cx="572" cy="505" r="12"/><circle cx="750" cy="500" r="12"/></g><g opacity=".14"><path d="M-60 215C190 80 440 660 960 305M-60 247C190 112 440 692 960 337"/><circle cx="430" cy="380" r="260" stroke-dasharray="2 20"/></g></g><g fill="#aa8ce8" opacity=".3"><circle cx="100" cy="125" r="3"/><circle cx="395" cy="83" r="4"/><circle cx="812" cy="676" r="3"/></g></svg>