<svg xmlns="http://www.w3.org/2000/svg" viewBox="0 0 360 200" width="360" height="200"><rect width="360" height="200" fill="#CDEFEA"/><circle cx="300" cy="44" r="20" fill="#FFD27A"/><g fill="#FFFFFF" transform="translate(28 26) scale(1)"><rect x="0" y="10" width="74" height="20" rx="10"/><circle cx="24" cy="12" r="14"/><circle cx="46" cy="8" r="17"/></g><g fill="#FFFFFF" transform="translate(196 44) scale(0.8)"><rect x="0" y="10" width="74" height="20" rx="10"/><circle cx="24" cy="12" r="14"/><circle cx="46" cy="8" r="17"/></g><g fill="#A3DDD3"><rect x="6" y="78" width="50" height="96"/><rect x="62" y="58" width="42" height="116"/><rect x="226" y="66" width="54" height="108"/><rect x="300" y="88" width="56" height="86"/></g><rect x="30" y="98" width="66" height="78" rx="3" fill="#14B8A6"/><rect x="38" y="108" width="9" height="10" rx="1.5" fill="#E6FFFA"/><rect x="38" y="124" width="9" height="10" rx="1.5" fill="#E6FFFA"/><rect x="38" y="140" width="9" height="10" rx="1.5" fill="#E6FFFA"/><rect x="38" y="156" width="9" height="10" rx="1.5" fill="#E6FFFA"/><rect x="52" y="108" width="9" height="10" rx="1.5" fill="#E6FFFA"/><rect x="52" y="124" width="9" height="10" rx="1.5" fill="#E6FFFA"/><rect x="52" y="140" width="9" height="10" rx="1.5" fill="#E6FFFA"/><rect x="52" y="156" width="9" height="10" rx="1.5" fill="#E6FFFA"/><rect x="66" y="108" width="9" height="10" rx="1.5" fill="#E6FFFA"/><rect x="66" y="124" width="9" height="10" rx="1.5" fill="#E6FFFA"/><rect x="66" y="140" width="9" height="10" rx="1.5" fill="#E6FFFA"/><rect x="66" y="156" width="9" height="10" rx="1.5" fill="#E6FFFA"/><rect x="80" y="108" width="9" height="10" rx="1.5" fill="#E6FFFA"/><rect x="80" y="124" width="9" height="10" rx="1.5" fill="#E6FFFA"/><rect x="80" y="140" width="9" height="10" rx="1.5" fill="#E6FFFA"/><rect x="80" y="156" width="9" height="10" rx="1.5" fill="#E6FFFA"/><rect x="248" y="90" width="76" height="86" rx="3" fill="#0F766E"/><rect x="257" y="100" width="10" height="11" rx="1.5" fill="#99F6E4"/><rect x="257" y="118" width="10" height="11" rx="1.5" fill="#99F6E4"/><rect x="257" y="136" width="10" height="11" rx="1.5" fill="#99F6E4"/><rect x="257" y="154" width="10" height="11" rx="1.5" fill="#99F6E4"/><rect x="273" y="100" width="10" height="11" rx="1.5" fill="#99F6E4"/><rect x="273" y="118" width="10" height="11" rx="1.5" fill="#99F6E4"/><rect x="273" y="136" width="10" height="11" rx="1.5" fill="#99F6E4"/><rect x="273" y="154" width="10" height="11" rx="1.5" fill="#99F6E4"/><rect x="289" y="100" width="10" height="11" rx="1.5" fill="#99F6E4"/><rect x="289" y="118" width="10" height="11" rx="1.5" fill="#99F6E4"/><rect x="289" y="136" width="10" height="11" rx="1.5" fill="#99F6E4"/><rect x="289" y="154" width="10" height="11" rx="1.5" fill="#99F6E4"/><rect x="305" y="100" width="10" height="11" rx="1.5" fill="#99F6E4"/><rect x="305" y="118" width="10" height="11" rx="1.5" fill="#99F6E4"/><rect x="305" y="136" width="10" height="11" rx="1.5" fill="#99F6E4"/><rect x="305" y="154" width="10" height="11" rx="1.5" fill="#99F6E4"/><rect x="268" y="152" width="18" height="24" rx="2" fill="#134E4A"/><rect x="0" y="164" width="360" height="10" fill="#94A3B8"/><rect x="120" y="134" width="6" height="32" fill="#8B5E3C"/><circle cx="123" cy="124" r="20" fill="#34D399"/><circle cx="111" cy="136" r="12" fill="#10B981"/><circle cx="136" cy="134" r="11" fill="#10B981"/><rect x="197" y="96" width="5" height="70" rx="2" fill="#475569"/><circle cx="199.5" cy="90" r="16" fill="#EF4444"/><path d="M191 97 V83 L199.5 92 L208 83 V97" stroke="#FFFFFF" stroke-width="3.5" fill="none" stroke-linejoin="round" stroke-linecap="round"/><rect x="0" y="172" width="360" height="28" fill="#334155"/><rect x="8" y="184" width="22" height="4" rx="2" fill="#F8FAFC"/><rect x="52" y="184" width="22" height="4" rx="2" fill="#F8FAFC"/><rect x="96" y="184" width="22" height="4" rx="2" fill="#F8FAFC"/><rect x="140" y="184" width="22" height="4" rx="2" fill="#F8FAFC"/><rect x="184" y="184" width="22" height="4" rx="2" fill="#F8FAFC"/><rect x="228" y="184" width="22" height="4" rx="2" fill="#F8FAFC"/><rect x="272" y="184" width="22" height="4" rx="2" fill="#F8FAFC"/><rect x="316" y="184" width="22" height="4" rx="2" fill="#F8FAFC"/><path d="M160 30c-11 0-20 9-20 20 0 15 20 33 20 33s20-18 20-33c0-11-9-20-20-20z" fill="#F97316"/><circle cx="160" cy="50" r="7" fill="#FFFFFF"/></svg>