<svg xmlns="http://www.w3.org/2000/svg" width="64" height="48" viewBox="0 0 64 48" fill="none"><defs><linearGradient id="paper" x1="9" y1="5" x2="50" y2="39" gradientUnits="userSpaceOnUse"><stop stop-color="#fffbeb"/><stop offset="1" stop-color="#dacc9e"/></linearGradient><linearGradient id="gold" x1="39" y1="23" x2="53" y2="41" gradientUnits="userSpaceOnUse"><stop stop-color="#edcf79"/><stop offset="1" stop-color="#a67b2e"/></linearGradient></defs><rect x="5" y="6" width="54" height="34" rx="2" fill="#8b7955" opacity=".18"/><rect x="4" y="4" width="54" height="34" rx="2" fill="url(#paper)" stroke="#a48a53" stroke-width="2"/><path d="M12 9H50L53 12V29L50 33H12L9 29V12L12 9Z" stroke="#b7a478"/><path d="M20 15H42M16 20H45M16 24H37" stroke="#a39267" stroke-width="1.5" stroke-linecap="round"/><path d="m41 34-2 12 7-4 6 4-2-12" fill="#ad7930"/><circle cx="46" cy="31" r="8" fill="url(#gold)" stroke="#9d772d"/><circle cx="46" cy="31" r="5" stroke="#f9e3a3"/><path d="m43 31 2 2 4-5" stroke="#fff0b7" stroke-width="1.5" stroke-linecap="round"/></svg>
